<svg width="180" height="36" viewBox="0 0 180 36" fill="none" xmlns="http://www.w3.org/2000/svg">
<path d="M41.5952 19.0199C41.5952 27.8086 35.4533 34.6799 28.1677 34.6799C20.8821 34.6799 14.7402 27.8086 14.7402 19.0199C14.7402 10.2312 20.8821 3.35986 28.1677 3.35986C35.4533 3.35986 41.5952 10.2312 41.5952 19.0199Z" fill="#02021D" stroke="white" stroke-width="2"/>
<path d="M34.7251 19.0199C34.7251 27.8086 28.5832 34.6799 21.2976 34.6799C14.012 34.6799 7.87012 27.8086 7.87012 19.0199C7.87012 10.2312 14.012 3.35986 21.2976 3.35986C28.5832 3.35986 34.7251 10.2312 34.7251 19.0199Z" fill="#02021D" stroke="white" stroke-width="2"/>
<path d="M28.855 19.0199C28.855 28.2209 22.3956 35.6799 14.4275 35.6799C6.4594 35.6799 0 28.2209 0 19.0199C0 9.8188 6.4594 2.35986 14.4275 2.35986C22.3956 2.35986 28.855 9.8188 28.855 19.0199Z" fill="white"/>
<path d="M70.8626 34.3198C69.0413 34.3198 67.4738 34.0715 66.1601 33.575C64.8464 33.0784 63.6372 32.4358 62.5325 31.6471L60.4276 33.7502H59.084V24.5492H60.4723C60.8306 25.9805 61.4128 27.3241 62.219 28.5801C63.055 29.8361 64.1746 30.8585 65.5779 31.6471C66.9812 32.4066 68.698 32.7863 70.7283 32.7863C72.4003 32.7863 73.7886 32.5234 74.8933 31.9977C76.0279 31.4719 76.8788 30.7562 77.4461 29.8508C78.0432 28.916 78.3418 27.8937 78.3418 26.7837C78.3418 25.6446 78.0731 24.7245 77.5357 24.0234C76.9982 23.3224 76.2966 22.782 75.4308 22.4023C74.5948 21.9934 73.6841 21.6721 72.6988 21.4384C71.7434 21.2047 70.8328 20.9856 69.9669 20.7812C67.8769 20.2554 66.0407 19.569 64.4583 18.7219C62.8758 17.8456 61.6368 16.721 60.7411 15.3482C59.8752 13.9753 59.4423 12.2666 59.4423 10.2219C59.4423 7.97275 59.9349 6.11793 60.9202 4.65745C61.9055 3.19697 63.2043 2.11621 64.8165 1.41518C66.4288 0.684944 68.1456 0.319824 69.9669 0.319824C71.3105 0.319824 72.5048 0.509686 73.5498 0.88941C74.6246 1.26914 75.7592 1.82412 76.9535 2.55436L78.7001 0.714154H80.0885V9.6523H78.7449C77.879 6.87738 76.7146 4.89113 75.2516 3.69353C73.7886 2.46673 71.9972 1.85333 69.8773 1.85333C68.5935 1.85333 67.4141 2.0578 66.3393 2.46673C65.2943 2.84646 64.4583 3.40144 63.8313 4.13168C63.2043 4.86192 62.8908 5.7236 62.8908 6.71673C62.8908 7.65144 63.1595 8.42549 63.6969 9.0389C64.2343 9.62309 64.936 10.0904 65.8018 10.441C66.6677 10.7915 67.5933 11.0836 68.5785 11.3172C69.5638 11.5509 70.5043 11.77 71.4 11.9745C73.6692 12.5002 75.58 13.2305 77.1326 14.1652C78.6852 15.0707 79.8645 16.2683 80.6707 17.758C81.4768 19.2477 81.8799 21.1171 81.8799 23.3662C81.8799 26.813 80.9245 29.5002 79.0136 31.4281C77.1326 33.3559 74.4156 34.3198 70.8626 34.3198Z" fill="white"/>
<path d="M101.421 34.3198C99.0926 34.3198 96.9131 33.8525 94.8828 32.9178C92.8823 31.9831 91.1208 30.7124 89.5981 29.1059C88.1052 27.4994 86.9259 25.6738 86.06 23.6291C85.224 21.5844 84.806 19.4375 84.806 17.1884C84.806 14.9392 85.224 12.8069 86.06 10.7915C86.9259 8.7468 88.1052 6.95041 89.5981 5.4023C91.1208 3.82498 92.8823 2.58357 94.8828 1.67807C96.9131 0.772573 99.0926 0.319824 101.421 0.319824C103.75 0.319824 105.93 0.772573 107.96 1.67807C109.99 2.58357 111.752 3.82498 113.245 5.4023C114.768 6.95041 115.947 8.7468 116.783 10.7915C117.649 12.8069 118.082 14.9392 118.082 17.1884C118.082 19.4375 117.649 21.5844 116.783 23.6291C115.947 25.6738 114.768 27.4994 113.245 29.1059C111.752 30.7124 109.99 31.9831 107.96 32.9178C105.93 33.8525 103.75 34.3198 101.421 34.3198ZM101.377 32.7863C102.899 32.7863 104.183 32.5672 105.228 32.1291C106.273 31.6617 107.109 30.8585 107.736 29.7193C108.393 28.5801 108.856 27.0028 109.125 24.9873C109.423 22.9719 109.572 20.4014 109.572 17.276C109.572 14.1506 109.423 11.5947 109.125 9.60848C108.856 7.59302 108.393 6.0303 107.736 4.92034C107.109 3.78116 106.273 2.9925 105.228 2.55436C104.183 2.08701 102.899 1.85333 101.377 1.85333C99.8838 1.85333 98.6149 2.08701 97.5699 2.55436C96.5548 2.9925 95.7337 3.76656 95.1067 4.87652C94.4797 5.98649 94.0169 7.5492 93.7183 9.56467C93.4496 11.5509 93.3153 14.0922 93.3153 17.1884C93.3153 20.3722 93.4496 22.9865 93.7183 25.0312C94.0169 27.0466 94.4797 28.6239 95.1067 29.7631C95.7636 30.8731 96.5996 31.6617 97.6147 32.1291C98.6597 32.5672 99.9137 32.7863 101.377 32.7863Z" fill="white"/>
<path d="M131.842 18.7657V17.4513H135.559C137.201 17.4513 138.53 17.2468 139.545 16.8379C140.56 16.3997 141.306 15.6111 141.784 14.4719C142.262 13.3035 142.501 11.6239 142.501 9.43323C142.501 7.35934 142.307 5.79663 141.919 4.74508C141.53 3.69353 140.948 2.9779 140.172 2.59817C139.425 2.21845 138.485 2.02859 137.35 2.02859H120.78V0.714154H139.59C141.739 0.714154 143.665 1.09388 145.367 1.85333C147.099 2.61278 148.472 3.66433 149.487 5.00797C150.502 6.3224 151.01 7.8413 151.01 9.56467C151.01 11.3757 150.383 12.9822 149.129 14.3843C147.905 15.7571 146.143 16.8379 143.844 17.6265C141.545 18.386 138.784 18.7657 135.559 18.7657H131.842ZM120.78 33.7502V32.4358H137.395V33.7502H120.78ZM125.034 33.093V0.714154H132.111V33.093H125.034Z" fill="white"/>
<path d="M169.386 33.093L161.19 11.142H161.011L160.742 9.52085L163.788 0.319824H164.952L177.134 33.093H169.386ZM146.635 33.7502V32.4358H157.562V33.7502H146.635ZM154.651 24.8121V23.5415H170.058V24.8121H154.651ZM164.459 33.7502V32.4358H180V33.7502H164.459ZM150.576 33.093L163.788 0.319824H164.952L162.623 7.28632L152.054 33.093H150.576Z" fill="white"/>
</svg>
