<svg width="262" height="52" viewBox="0 0 262 52" fill="none" xmlns="http://www.w3.org/2000/svg">
<path d="M61 27.5C61 40.6289 51.9066 51 41 51C30.0934 51 21 40.6289 21 27.5C21 14.3711 30.0934 4 41 4C51.9066 4 61 14.3711 61 27.5Z" fill="white" stroke="#02021D" stroke-width="2"/>
<path d="M51 27.5C51 40.6289 41.9066 51 31 51C20.0934 51 11 40.6289 11 27.5C11 14.3711 20.0934 4 31 4C41.9066 4 51 14.3711 51 27.5Z" fill="white" stroke="#02021D" stroke-width="2"/>
<path d="M42 27.5C42 41.031 32.598 52 21 52C9.40202 52 0 41.031 0 27.5C0 13.969 9.40202 3 21 3C32.598 3 42 13.969 42 27.5Z" fill="#02021D"/>
<path d="M103.144 50C100.493 50 98.2119 49.6349 96.2997 48.9046C94.3875 48.1744 92.6274 47.2294 91.0195 46.0696L87.9556 49.1624H86V35.6314H88.0208C88.5423 37.7363 89.3898 39.7122 90.5632 41.5593C91.78 43.4064 93.4097 44.9098 95.4523 46.0696C97.4948 47.1864 99.9937 47.7448 102.949 47.7448C105.383 47.7448 107.403 47.3582 109.011 46.585C110.663 45.8119 111.901 44.7594 112.727 43.4278C113.596 42.0533 114.031 40.5498 114.031 38.9175C114.031 37.2423 113.64 35.8892 112.857 34.8582C112.075 33.8273 111.054 33.0326 109.794 32.4742C108.577 31.8729 107.251 31.4003 105.817 31.0567C104.426 30.7131 103.101 30.3909 101.841 30.0902C98.7986 29.317 96.1259 28.3076 93.8226 27.0619C91.5193 25.7732 89.7157 24.1194 88.412 22.1005C87.1517 20.0816 86.5215 17.5687 86.5215 14.5619C86.5215 11.2543 87.2386 8.52663 88.6727 6.37886C90.1068 4.2311 91.9973 2.64175 94.3441 1.61082C96.6908 0.536941 99.1897 0 101.841 0C103.796 0 105.535 0.279209 107.056 0.837626C108.62 1.39605 110.272 2.2122 112.01 3.28608L114.552 0.579897H116.573V13.7242H114.618C113.357 9.64347 111.662 6.72251 109.533 4.96134C107.403 3.15721 104.796 2.25515 101.71 2.25515C99.8416 2.25515 98.125 2.55584 96.5605 3.15721C95.0394 3.71563 93.8226 4.53178 92.9099 5.60567C91.9973 6.67955 91.541 7.94673 91.541 9.40721C91.541 10.7818 91.9321 11.9201 92.7144 12.8222C93.4966 13.6813 94.5179 14.3686 95.7782 14.884C97.0385 15.3995 98.3857 15.829 99.8199 16.1727C101.254 16.5163 102.623 16.8385 103.927 17.1392C107.23 17.9124 110.011 18.9863 112.271 20.3608C114.531 21.6924 116.247 23.4536 117.421 25.6443C118.594 27.8351 119.181 30.5842 119.181 33.8918C119.181 38.9605 117.79 42.9124 115.009 45.7474C112.271 48.5825 108.316 50 103.144 50Z" fill="#02021D"/>
<path d="M147.625 50C144.235 50 141.062 49.3127 138.107 47.9381C135.195 46.5636 132.631 44.695 130.415 42.3325C128.242 39.9699 126.525 37.2852 125.265 34.2784C124.048 31.2715 123.44 28.1143 123.44 24.8067C123.44 21.4991 124.048 18.3634 125.265 15.3995C126.525 12.3926 128.242 9.75086 130.415 7.47423C132.631 5.15464 135.195 3.32904 138.107 1.99742C141.062 0.665807 144.235 0 147.625 0C151.014 0 154.187 0.665807 157.142 1.99742C160.097 3.32904 162.661 5.15464 164.834 7.47423C167.051 9.75086 168.767 12.3926 169.984 15.3995C171.244 18.3634 171.875 21.4991 171.875 24.8067C171.875 28.1143 171.244 31.2715 169.984 34.2784C168.767 37.2852 167.051 39.9699 164.834 42.3325C162.661 44.695 160.097 46.5636 157.142 47.9381C154.187 49.3127 151.014 50 147.625 50ZM147.559 47.7448C149.776 47.7448 151.645 47.4227 153.166 46.7783C154.687 46.0911 155.903 44.9098 156.816 43.2345C157.772 41.5593 158.446 39.2397 158.837 36.2758C159.271 33.3119 159.489 29.5318 159.489 24.9356C159.489 20.3393 159.271 16.5808 158.837 13.6598C158.446 10.6959 157.772 8.39777 156.816 6.76546C155.903 5.0902 154.687 3.93041 153.166 3.28608C151.645 2.5988 149.776 2.25515 147.559 2.25515C145.386 2.25515 143.539 2.5988 142.018 3.28608C140.541 3.93041 139.346 5.06873 138.433 6.70103C137.52 8.33333 136.847 10.6314 136.412 13.5954C136.021 16.5163 135.826 20.2534 135.826 24.8067C135.826 29.4888 136.021 33.3333 136.412 36.3402C136.847 39.3041 137.52 41.6237 138.433 43.299C139.389 44.9313 140.606 46.0911 142.084 46.7783C143.605 47.4227 145.43 47.7448 147.559 47.7448Z" fill="#02021D"/>
<path d="M191.903 27.1263V25.1933H197.314C199.704 25.1933 201.638 24.8926 203.115 24.2912C204.593 23.6469 205.679 22.4871 206.375 20.8119C207.07 19.0936 207.418 16.6237 207.418 13.4021C207.418 10.3522 207.135 8.05412 206.57 6.50773C206.005 4.96134 205.158 3.90893 204.028 3.35051C202.942 2.79209 201.573 2.51288 199.921 2.51288H175.802V0.579897H203.181C206.31 0.579897 209.113 1.13832 211.59 2.25515C214.11 3.37199 216.11 4.91838 217.587 6.89433C219.065 8.82732 219.803 11.061 219.803 13.5954C219.803 16.2586 218.891 18.6211 217.066 20.683C215.284 22.7019 212.72 24.2912 209.373 25.451C206.027 26.5679 202.007 27.1263 197.314 27.1263H191.903ZM175.802 49.1624V47.2294H199.986V49.1624H175.802ZM181.994 48.1959V0.579897H192.294V48.1959H181.994Z" fill="#02021D"/>
<path d="M246.55 48.1959L234.621 15.9149H234.36L233.969 13.5309L238.402 0H240.097L257.828 48.1959H246.55ZM213.435 49.1624V47.2294H229.341V49.1624H213.435ZM225.104 36.018V34.1495H247.528V36.018H225.104ZM239.38 49.1624V47.2294H262V49.1624H239.38ZM219.171 48.1959L238.402 0H240.097L236.707 10.2448L221.323 48.1959H219.171Z" fill="#02021D"/>
</svg>
