<svg width="62" height="49" viewBox="0 0 62 49" fill="none" xmlns="http://www.w3.org/2000/svg">
<path d="M61 24.5C61 37.6289 51.9066 48 41 48C30.0934 48 21 37.6289 21 24.5C21 11.3711 30.0934 1 41 1C51.9066 1 61 11.3711 61 24.5Z" fill="white" stroke="#02021D" stroke-width="2"/>
<path d="M51 24.5C51 37.6289 41.9066 48 31 48C20.0934 48 11 37.6289 11 24.5C11 11.3711 20.0934 1 31 1C41.9066 1 51 11.3711 51 24.5Z" fill="white" stroke="#02021D" stroke-width="2"/>
<path d="M42 24.5C42 38.031 32.598 49 21 49C9.40202 49 0 38.031 0 24.5C0 10.969 9.40202 0 21 0C32.598 0 42 10.969 42 24.5Z" fill="#02021D"/>
</svg>
